<svg id="Asset_13" data-name="Asset 13" xmlns="http://www.w3.org/2000/svg" width="61.28" height="62.002" viewBox="0 0 61.28 62.002">
  <g id="Layer_2" data-name="Layer 2" transform="translate(0 0)">
    <path id="Path_103" data-name="Path 103" d="M38.368,0H2.123A2.149,2.149,0,0,0,0,2.149V53.073a8.815,8.815,0,0,0,8.815,8.815H31.727a1.424,1.424,0,0,0,.337,0,3.3,3.3,0,0,0,.5,0,8.647,8.647,0,0,0,2.589-.647,8.815,8.815,0,0,0,5.385-8.168V2.149A2.162,2.162,0,0,0,38.368,0ZM32.8,59.287a5.087,5.087,0,0,1-1.074.091H8.815a6.382,6.382,0,0,1-6.382-6.3V52.9H38.109v.168A6.382,6.382,0,0,1,32.8,59.287Zm5.307-39.041V50.407H2.434V4.582A2.149,2.149,0,0,1,4.6,2.434H35.934a2.162,2.162,0,0,1,2.175,2.149V20.245Z" transform="translate(0 0.104)" fill="#fff"/>
    <path id="Path_104" data-name="Path 104" d="M15.944,42.26a1.294,1.294,0,0,0-1.294,1.191h0a1.294,1.294,0,0,0,2.485,0h0A1.294,1.294,0,0,0,15.944,42.26Z" transform="translate(4.314 12.548)" fill="#fff"/>
    <path id="Path_105" data-name="Path 105" d="M29.6,5H6.845a.945.945,0,0,0,0,1.89H29.6A.945.945,0,1,0,29.6,5Z" transform="translate(1.737 1.576)" fill="#fff"/>
    <path id="Path_106" data-name="Path 106" d="M42.4,18.043a9.061,9.061,0,1,1,9.061-9.061A9.061,9.061,0,0,1,42.4,18.043Zm0-15.43a6.472,6.472,0,1,0,6.472,6.472A6.472,6.472,0,0,0,42.4,2.612Z" transform="translate(9.818 0.08)" fill="#fff"/>
    <path id="Path_107" data-name="Path 107" d="M40.634,13.385a1.294,1.294,0,0,1-1.294-1.294v-7.9a1.294,1.294,0,0,1,2.589,0v7.9A1.294,1.294,0,0,1,40.634,13.385Z" transform="translate(11.584 0.958)" fill="#fff"/>
    <path id="Path_108" data-name="Path 108" d="M45.5,8.589H37.574a1.294,1.294,0,1,1,0-2.589H45.5a1.294,1.294,0,1,1,0,2.589Z" transform="translate(10.683 1.87)" fill="#fff"/>
  </g>
</svg>
