<svg id="Asset_14" data-name="Asset 14" xmlns="http://www.w3.org/2000/svg" width="150.267" height="67.683" viewBox="0 0 150.267 67.683">
  <g id="Layer_2" data-name="Layer 2" transform="translate(0 0)">
    <path id="Path_109" data-name="Path 109" d="M79.915,33.921a7.315,7.315,0,1,1,7.315-7.315A7.315,7.315,0,0,1,79.915,33.921Zm0-11.45a4.135,4.135,0,1,0,4.135,4.135A4.135,4.135,0,0,0,79.915,22.471Z" transform="translate(42.855 11.387)" fill="#fff"/>
    <path id="Path_110" data-name="Path 110" d="M63.505,33.921a7.315,7.315,0,1,1,7.315-7.315,7.315,7.315,0,0,1-7.315,7.315Zm0-11.45a4.135,4.135,0,1,0,4.135,4.135A4.135,4.135,0,0,0,63.505,22.471Z" transform="translate(33.169 11.387)" fill="#fff"/>
    <path id="Path_111" data-name="Path 111" d="M114.308,67.683H44a8.047,8.047,0,0,1-7.951-8.047V8.047A8.047,8.047,0,0,1,44,0H59.316a1.59,1.59,0,0,1,0,3.181H44a4.866,4.866,0,0,0-4.771,4.866V59.636A4.866,4.866,0,0,0,44,64.5h70.306a4.866,4.866,0,0,0,4.866-4.866V55.024a1.59,1.59,0,0,1,3.181,0v4.612a8.063,8.063,0,0,1-8.047,8.047Z" transform="translate(21.28 0)" fill="#fff"/>
    <path id="Path_112" data-name="Path 112" d="M48.154,8.941H1.59a1.59,1.59,0,1,1,0-3.181H48.154a1.59,1.59,0,1,1,0,3.181Z" transform="translate(0 3.4)" fill="#fff"/>
    <path id="Path_113" data-name="Path 113" d="M43.621,15.661H9.27a1.59,1.59,0,0,1,0-3.181h34.35a1.59,1.59,0,1,1,0,3.181Z" transform="translate(4.533 7.367)" fill="#fff"/>
    <path id="Path_114" data-name="Path 114" d="M39.512,22.181H16.23a1.59,1.59,0,1,1,0-3.181H39.512a1.59,1.59,0,1,1,0,3.181Z" transform="translate(8.642 11.216)" fill="#fff"/>
    <path id="Path_115" data-name="Path 115" d="M114.677,17.639a1.59,1.59,0,0,1-1.59-1.59V8.941H45.69a1.59,1.59,0,1,1,0-3.181h70.577V16.049A1.59,1.59,0,0,1,114.677,17.639Z" transform="translate(26.032 3.4)" fill="#fff"/>
    <path id="Path_116" data-name="Path 116" d="M82.106,12.341a1.59,1.59,0,0,1-1.59-1.59V3.181H57.361v7.57a1.59,1.59,0,0,1-3.181,0V1.59A1.59,1.59,0,0,1,55.77,0H82.106A1.59,1.59,0,0,1,83.7,1.59v9.16A1.59,1.59,0,0,1,82.106,12.341Z" transform="translate(31.982 0)" fill="#fff"/>
    <path id="Path_117" data-name="Path 117" d="M88.035,12.341a1.59,1.59,0,0,1-1.59-1.59V5.534a2.354,2.354,0,0,0-2.354-2.354H76.76A1.59,1.59,0,1,1,76.76,0h7.331a5.534,5.534,0,0,1,5.534,5.534V10.75A1.59,1.59,0,0,1,88.035,12.341Z" transform="translate(44.372 0)" fill="#fff"/>
    <path id="Path_118" data-name="Path 118" d="M97.855,40.855H80.2a12.372,12.372,0,0,1,0-24.745H97.855a12.372,12.372,0,0,1,0,24.745ZM80.2,19.291a9.192,9.192,0,0,0,0,18.384H97.855a9.192,9.192,0,0,0,0-18.384Z" transform="translate(40.04 9.51)" fill="#fff"/>
  </g>
</svg>
