<svg id="Asset_15" data-name="Asset 15" xmlns="http://www.w3.org/2000/svg" width="103.287" height="75.803" viewBox="0 0 103.287 75.803">
  <g id="Layer_2" data-name="Layer 2">
    <path id="Path_119" data-name="Path 119" d="M9.877,46.321H7.259A7.272,7.272,0,0,1,0,39.062V7.259A7.272,7.272,0,0,1,7.259,0H68.988a7.272,7.272,0,0,1,7.259,7.259V9.877a1.235,1.235,0,1,1-2.469,0V7.259a4.79,4.79,0,0,0-4.79-4.79H7.259a4.79,4.79,0,0,0-4.79,4.79v31.8a4.79,4.79,0,0,0,4.79,4.79H9.877a1.235,1.235,0,1,1,0,2.469Z" fill="#fff"/>
    <path id="Path_120" data-name="Path 120" d="M69.815,59.791H14.136A7.2,7.2,0,0,1,7,52.605V14.136A7.2,7.2,0,0,1,14.136,7H78.68a7.2,7.2,0,0,1,7.185,7.185V39.593a1.235,1.235,0,1,1-2.469,0V14.136A4.716,4.716,0,0,0,78.68,9.469H14.136a4.716,4.716,0,0,0-4.667,4.667V52.605a4.716,4.716,0,0,0,4.716,4.716h55.68a1.235,1.235,0,1,1,0,2.469Z" transform="translate(1.642 1.642)" fill="#fff"/>
    <path id="Path_121" data-name="Path 121" d="M74.782,16.149H16.115a1.235,1.235,0,0,1,0-2.469H74.782a1.235,1.235,0,1,1,0,2.469Z" transform="translate(3.491 3.209)" fill="#fff"/>
    <path id="Path_122" data-name="Path 122" d="M74.782,21.789H16.115a1.235,1.235,0,1,1,0-2.469H74.782a1.235,1.235,0,1,1,0,2.469Z" transform="translate(3.491 4.532)" fill="#fff"/>
    <path id="Path_123" data-name="Path 123" d="M22.479,43.878A5.679,5.679,0,1,1,28.158,38.2,5.679,5.679,0,0,1,22.479,43.878Zm0-8.889a3.21,3.21,0,1,0,3.21,3.21,3.21,3.21,0,0,0-3.21-3.21Z" transform="translate(3.941 7.628)" fill="#fff"/>
    <path id="Path_124" data-name="Path 124" d="M33.519,43.878A5.679,5.679,0,1,1,39.2,38.2a5.679,5.679,0,0,1-5.679,5.679Zm0-8.889a3.21,3.21,0,1,0,3.21,3.21,3.21,3.21,0,0,0-3.21-3.21Z" transform="translate(6.531 7.628)" fill="#fff"/>
    <path id="Path_125" data-name="Path 125" d="M83.208,67.737a1.235,1.235,0,0,1-.889-.37l-6.963-7.161-4.025,5.679a1.235,1.235,0,0,1-2.148-.235L56.738,36.1a1.235,1.235,0,0,1,1.58-1.63L86.985,45.577a1.233,1.233,0,0,1,.432,2.025L81.924,53.1l7.642,6.469a1.225,1.225,0,0,1,.1,1.778l-5.556,6a1.235,1.235,0,0,1-.889.4Zm-8-10.691a1.235,1.235,0,0,1,.889.37l7.086,7.358,3.8-4.1-7.679-6.568a1.228,1.228,0,0,1-.086-1.815l5.111-5.1L60.146,37.811l10.519,24.84,3.6-5.086a1.235,1.235,0,0,1,.9-.519Z" transform="translate(13.287 8.066)" fill="#fff"/>
  </g>
</svg>
