<svg xmlns="http://www.w3.org/2000/svg" width="112.8" height="156.52" viewBox="0 0 112.8 156.52">
  <g id="Asset_4" data-name="Asset 4" transform="translate(0.01)">
    <g id="Layer_2" data-name="Layer 2">
      <path id="Path_32" data-name="Path 32" d="M87.37,117.32H25.43V81.51a6.73,6.73,0,0,1,6.71-6.72H80.65a6.73,6.73,0,0,1,6.72,6.72Zm-59.94-2H85.37V81.51a4.73,4.73,0,0,0-4.72-4.72H32.14a4.72,4.72,0,0,0-4.71,4.72Z" fill="#03363f"/>
      <path id="Path_33" data-name="Path 33" d="M91.36,125.45H21.43a5.07,5.07,0,0,1,0-10.13H91.36a5.07,5.07,0,1,1,0,10.13Zm-69.93-8.13a3.07,3.07,0,0,0,0,6.13H91.36a3.07,3.07,0,1,0,0-6.13Z" fill="#03363f"/>
      <path id="Path_34" data-name="Path 34" d="M69.12,107.19H43.68a1,1,0,0,1,0-2H69.12a1,1,0,0,1,0,2Z" fill="#f15f22"/>
      <path id="Path_35" data-name="Path 35" d="M85.76,84.94H27a1,1,0,0,1,0-2H85.76a1,1,0,0,1,0,2Z" fill="#03363f"/>
      <path id="Path_36" data-name="Path 36" d="M69.12,111.22H43.68a1,1,0,0,1,0-2H69.12a1,1,0,0,1,0,2Z" fill="#f15f22"/>
      <path id="Path_37" data-name="Path 37" d="M72.86,101.13H39.94a6.05,6.05,0,1,1,0-12.1H72.86a6.05,6.05,0,1,1,0,12.1ZM39.94,91a4.05,4.05,0,1,0,0,8.1H72.86a4.05,4.05,0,1,0,0-8.1Z" fill="#f15f22"/>
      <circle id="Ellipse_12" data-name="Ellipse 12" cx="1.02" cy="1.02" r="1.02" transform="translate(76.89 78.86)" fill="#03363f"/>
      <circle id="Ellipse_13" data-name="Ellipse 13" cx="1.02" cy="1.02" r="1.02" transform="translate(72.81 78.86)" fill="#03363f"/>
      <path id="Path_38" data-name="Path 38" d="M56.4,156.52a56.4,56.4,0,1,1,56.39-56.4,56.4,56.4,0,0,1-56.39,56.4Zm0-110.79a54.4,54.4,0,1,0,54.39,54.393A54.4,54.4,0,0,0,56.4,45.73Z" fill="#03363f"/>
      <path id="Path_39" data-name="Path 39" d="M58.3,10.38V23.82H55.41V13.64a3.79,3.79,0,0,1-.57.4,5.541,5.541,0,0,1-.69.34c-.24.1-.5.18-.76.26a5.36,5.36,0,0,1-.78.15V12.35a11.68,11.68,0,0,0,2.13-.85,11.82,11.82,0,0,0,1.81-1.12Z" fill="#03363f"/>
      <path id="Path_40" data-name="Path 40" d="M56.4,33.26A16.63,16.63,0,1,1,73,16.63,16.63,16.63,0,0,1,56.4,33.26ZM56.4,2A14.63,14.63,0,1,0,71,16.63,14.63,14.63,0,0,0,56.4,2Z" fill="#03363f"/>
    </g>
  </g>
</svg>
