<svg id="Asset_10" data-name="Asset 10" xmlns="http://www.w3.org/2000/svg" width="112.8" height="160.51" viewBox="0 0 112.8 160.51">
  <g id="Layer_2" data-name="Layer 2">
    <path id="Path_71" data-name="Path 71" d="M58.66,10.38V23.82H55.77V13.64a3.23,3.23,0,0,1-.56.4,7.371,7.371,0,0,1-.69.34c-.25.1-.5.18-.76.26a5.63,5.63,0,0,1-.78.15V12.35a11.68,11.68,0,0,0,2.13-.85,12.21,12.21,0,0,0,1.8-1.12Z" fill="#03363f"/>
    <path id="Path_72" data-name="Path 72" d="M56.76,33.26A16.63,16.63,0,1,1,73.39,16.63,16.63,16.63,0,0,1,56.76,33.26ZM56.76,2A14.63,14.63,0,1,0,71.39,16.63,14.63,14.63,0,0,0,56.76,2Z" fill="#03363f"/>
    <path id="Path_73" data-name="Path 73" d="M56.4,160.51a56.4,56.4,0,1,1,56.4-56.4,56.4,56.4,0,0,1-56.4,56.4Zm0-110.8a54.4,54.4,0,1,0,54.4,54.4,54.4,54.4,0,0,0-54.4-54.4Z" fill="#03363f"/>
    <path id="Path_74" data-name="Path 74" d="M81.84,89.5v4.64H83V90.5a5.51,5.51,0,0,0-1.16-1Zm0,0v4.64H83V90.5a5.51,5.51,0,0,0-1.16-1Zm17.65-3.59H84.73a2.9,2.9,0,0,0-2.83,2.3,3.55,3.55,0,0,0-.06.57v26.31A2.88,2.88,0,0,0,84.56,118H99.49a2.89,2.89,0,0,0,2.88-2.88V88.78a2.89,2.89,0,0,0-2.88-2.87Zm1.73,29.18a1.75,1.75,0,0,1-1.73,1.74H84.73a.47.47,0,0,1-.17,0A1.74,1.74,0,0,1,83,115.09V88.78a1.73,1.73,0,0,1,1.74-1.72H99.49a1.73,1.73,0,0,1,1.73,1.72ZM81.84,89.5v4.64H83V90.5a5.51,5.51,0,0,0-1.16-1Z" fill="#03363f"/>
    <path id="Path_75" data-name="Path 75" d="M97.76,91.78H86.46a.58.58,0,0,1-.58-.58.57.57,0,0,1,.58-.57h11.3a.57.57,0,0,1,.58.57.58.58,0,0,1-.58.58Z" fill="#03363f"/>
    <path id="Path_76" data-name="Path 76" d="M102.07,111.91a.57.57,0,0,1-.57.57H82.72a.58.58,0,1,1,0-1.15H101.5a.57.57,0,0,1,.57.58Z" fill="#03363f"/>
    <circle id="Ellipse_40" data-name="Ellipse 40" cx="0.57" cy="0.57" r="0.57" transform="translate(91.54 114.01)" fill="#f15f22"/>
    <path id="Path_77" data-name="Path 77" d="M38.49,94.14v1.15h1.15V94.14ZM36.77,79.27H15.3a2.77,2.77,0,0,0-2.88,2.64v33.41A2.77,2.77,0,0,0,15.3,118H35.89v-1H15.3a1.67,1.67,0,0,1-1.73-1.6V81.91a1.66,1.66,0,0,1,1.73-1.58H36.77a1.66,1.66,0,0,1,1.72,1.58v7.67A5.77,5.77,0,0,1,39.64,89V81.91A2.76,2.76,0,0,0,36.77,79.27Z" fill="#03363f"/>
    <path id="Path_78" data-name="Path 78" d="M35.32,85.46H16.74a.53.53,0,1,1,0-1H35.32a.53.53,0,1,1,0,1Z" fill="#03363f"/>
    <path id="Path_79" data-name="Path 79" d="M35.89,111.86v1.06H13.38a.55.55,0,0,1-.57-.53.56.56,0,0,1,.57-.53Z" fill="#03363f"/>
    <ellipse id="Ellipse_41" data-name="Ellipse 41" cx="0.57" cy="0.53" rx="0.57" ry="0.53" transform="translate(24.32 114.32)" fill="#f15f22"/>
    <ellipse id="Ellipse_42" data-name="Ellipse 42" cx="0.57" cy="0.53" rx="0.57" ry="0.53" transform="translate(26.6 114.32)" fill="#f15f22"/>
    <path id="Path_80" data-name="Path 80" d="M84.73,116.83a.47.47,0,0,1-.17,0V121H35.89V94.5a1.42,1.42,0,0,1,0-.36,5.91,5.91,0,0,1,2.57-4.56A5.769,5.769,0,0,1,39.64,89a5.83,5.83,0,0,1,2.25-.45H78.56a6,6,0,0,1,3.28,1,5.511,5.511,0,0,1,1.15,1V88.92a6,6,0,0,0-1.09-.71,7,7,0,0,0-3.34-.84H41.89a6.94,6.94,0,0,0-2.25.37,6.521,6.521,0,0,0-1.15.49,7.16,7.16,0,0,0-3.75,6.27v27.69h51v-5.36Zm-.17-5.5v1.15H85.7v-1.15ZM34.74,94.5v18.42h1.15V94.5a1.42,1.42,0,0,1,0-.36,5.91,5.91,0,0,1,2.57-4.56V88.23a7.16,7.16,0,0,0-3.72,6.27Z" fill="#03363f"/>
    <path id="Path_81" data-name="Path 81" d="M89.28,121H31.17a3.95,3.95,0,0,0,0,7.9H89.28a3.95,3.95,0,1,0,0-7.9Zm0,6.76H31.17a2.81,2.81,0,0,1,0-5.61H89.28a2.81,2.81,0,0,1,0,5.61Z" fill="#03363f"/>
    <path id="Path_82" data-name="Path 82" d="M70.79,113.7H49.66a.5.5,0,1,1,0-1H70.79a.5.5,0,0,1,0,1Z" fill="#f16024"/>
    <path id="Path_83" data-name="Path 83" d="M83,94.14v1.15H35.82a.58.58,0,0,1-.57-.58.57.57,0,0,1,.57-.57Z" fill="#03363f"/>
    <path id="Path_84" data-name="Path 84" d="M70.79,117.05H49.66a.5.5,0,0,1,0-1H70.79a.5.5,0,0,1,0,1Z" fill="#f16024"/>
    <path id="Path_85" data-name="Path 85" d="M74.45,108.66H46a4.15,4.15,0,0,1-4.15-4.15v-1.09A4.15,4.15,0,0,1,46,99.27H74.45a4.15,4.15,0,0,1,4.15,4.15v1.09a4.15,4.15,0,0,1-4.15,4.15ZM46,100.27a3.16,3.16,0,0,0-3.15,3.15v1.09A3.16,3.16,0,0,0,46,107.66H74.45a3.16,3.16,0,0,0,3.15-3.15v-1.09a3.16,3.16,0,0,0-3.15-3.15Z" fill="#f16024"/>
    <circle id="Ellipse_43" data-name="Ellipse 43" cx="0.85" cy="0.85" r="0.85" transform="translate(77.25 90.48)" fill="#03363f"/>
    <circle id="Ellipse_44" data-name="Ellipse 44" cx="0.85" cy="0.85" r="0.85" transform="translate(73.86 90.48)" fill="#03363f"/>
  </g>
</svg>
