<svg xmlns="http://www.w3.org/2000/svg" width="112.8" height="160.46" viewBox="0 0 112.8 160.46">
  <g id="Asset_12" data-name="Asset 12" transform="translate(0.01)">
    <g id="Layer_2" data-name="Layer 2">
      <path id="Path_96" data-name="Path 96" d="M52.21,22.31V19.79a5.08,5.08,0,0,0,3.08,1A2.78,2.78,0,0,0,57,20.27a1.58,1.58,0,0,0,.62-1.33,1.52,1.52,0,0,0-.77-1.35,3.93,3.93,0,0,0-2.1-.48h-1.2V14.89h1.12c1.72,0,2.57-.57,2.57-1.7s-.66-1.61-2-1.61a4.5,4.5,0,0,0-2.57.86V10.07a7.18,7.18,0,0,1,3.23-.69,4.91,4.91,0,0,1,3.14.9,2.89,2.89,0,0,1,1.12,2.36,3.05,3.05,0,0,1-2.61,3.22v.05a3.57,3.57,0,0,1,2.2,1A2.86,2.86,0,0,1,60.59,19a3.54,3.54,0,0,1-1.35,2.92A5.86,5.86,0,0,1,55.52,23,7.19,7.19,0,0,1,52.21,22.31Z" fill="#03363f"/>
      <path id="Path_97" data-name="Path 97" d="M56.4,33.26A16.63,16.63,0,1,1,73,16.63,16.63,16.63,0,0,1,56.4,33.26ZM56.4,2A14.63,14.63,0,1,0,71,16.63,14.63,14.63,0,0,0,56.4,2Z" fill="#03363f"/>
      <path id="Path_98" data-name="Path 98" d="M56.4,160.46a56.4,56.4,0,1,1,56.39-56.393A56.4,56.4,0,0,1,56.4,160.46Zm0-110.79a54.4,54.4,0,1,0,54.39,54.4A54.4,54.4,0,0,0,56.4,49.67Z" fill="#03363f"/>
      <path id="Path_99" data-name="Path 99" d="M79.59,90.79H51.15a1,1,0,0,0-1,1v19.08a1,1,0,0,0,1,1h2l-2.85,5.76a1,1,0,0,0,1.55,1.2l8.17-7H79.59a1,1,0,0,0,1-1V91.79A1,1,0,0,0,79.59,90.79Zm-1,19.08h-19a1,1,0,0,0-.65.24l-4.77,4.06,1.41-2.86a.97.97,0,0,0-.85-1.47H52.15V92.79H78.59Z" fill="#f15f22"/>
      <path id="Path_100" data-name="Path 100" d="M72.8,71.37H34.49a2.26,2.26,0,0,0-2.28,2.27v53.81a9.32,9.32,0,0,0,9.33,9.32H65.77a2.11,2.11,0,0,0,.36,0,3.139,3.139,0,0,0,.53,0,9.26,9.26,0,0,0,8.44-9.27V111.84H72.52v15.61a6.75,6.75,0,0,1-5.61,6.64,5.49,5.49,0,0,1-1.14.1H41.54a6.75,6.75,0,0,1-6.75-6.74V76.22A2.26,2.26,0,0,1,37.07,74H70.22a2.28,2.28,0,0,1,2.3,2.27V90.79H75.1V73.64A2.29,2.29,0,0,0,72.8,71.37Z" fill="#03363f"/>
      <rect id="Rectangle_39" data-name="Rectangle 39" width="40.31" height="2.58" transform="translate(33.5 124.69)" fill="#03363f"/>
      <path id="Path_101" data-name="Path 101" d="M55,130.5v.05a1.32,1.32,0,0,1-2.63,0v-.05a1.316,1.316,0,0,1,2.63,0Z" fill="#03363f"/>
      <path id="Path_102" data-name="Path 102" d="M65.36,80.21H41.28a1,1,0,1,1,0-2H65.36a1,1,0,0,1,0,2Z" fill="#03363f"/>
    </g>
  </g>
</svg>
