<svg xmlns="http://www.w3.org/2000/svg" width="112.811" height="156.531" viewBox="0 0 112.811 156.531">
  <g id="Asset_6" data-name="Asset 6" transform="translate(0.031)">
    <g id="Layer_2" data-name="Layer 2">
      <path id="Path_48" data-name="Path 48" d="M52.21,22.31V19.79a5.08,5.08,0,0,0,3.08,1A2.73,2.73,0,0,0,57,20.27a1.55,1.55,0,0,0,.62-1.33,1.51,1.51,0,0,0-.76-1.35,4,4,0,0,0-2.11-.48H53.54V14.89h1.13c1.71,0,2.57-.57,2.57-1.7s-.66-1.61-2-1.61a4.5,4.5,0,0,0-2.57.86V10.07a7.15,7.15,0,0,1,3.23-.69,4.91,4.91,0,0,1,3.14.9,2.89,2.89,0,0,1,1.12,2.36,3.05,3.05,0,0,1-2.61,3.22v.05a3.57,3.57,0,0,1,2.2,1,2.85,2.85,0,0,1,.8,2.06,3.56,3.56,0,0,1-1.34,2.92A5.86,5.86,0,0,1,55.52,23a7.19,7.19,0,0,1-3.31-.69Z" fill="#03363f"/>
      <path id="Path_49" data-name="Path 49" d="M56.4,33.26A16.63,16.63,0,1,1,73,16.63,16.63,16.63,0,0,1,56.4,33.26ZM56.4,2A14.63,14.63,0,1,0,71,16.63,14.63,14.63,0,0,0,56.4,2Z" fill="#03363f"/>
      <path id="Path_50" data-name="Path 50" d="M77.28,47.74c-.83-.33-1.66-.64-2.51-.93A53.78,53.78,0,0,0,68,44.93a56.47,56.47,0,0,0-23.16,0A53.63,53.63,0,0,0,38,46.81c-.84.28-1.68.59-2.51.93a56.4,56.4,0,1,0,41.77,0ZM56.39,154.53A54.4,54.4,0,0,1,35.51,49.9c.83-.35,1.66-.67,2.51-1a54.36,54.36,0,0,1,36.75,0c.85.3,1.68.62,2.51,1A54.4,54.4,0,0,1,56.39,154.53Z" fill="#03363f"/>
      <path id="Path_51" data-name="Path 51" d="M74.77,46.81V74.68H38V46.81c-.84.28-1.68.59-2.51.93V99.27a6.86,6.86,0,0,0,6.85,6.86H70.42a6.86,6.86,0,0,0,6.86-6.86V47.74C76.45,47.41,75.62,47.1,74.77,46.81Zm0,52.46a4.35,4.35,0,0,1-4.35,4.35H42.36A4.35,4.35,0,0,1,38,99.27V77.19H74.77ZM56.39,43.73a56,56,0,0,0-11.58,1.2H68a56,56,0,0,0-11.61-1.2Z" fill="#03363f"/>
      <path id="Path_52" data-name="Path 52" d="M66.45,50H46.35A3.32,3.32,0,0,0,43,53.27v13a3.32,3.32,0,0,0,3.32,3.32h20.1a3.32,3.32,0,0,0,3.32-3.32v-13A3.32,3.32,0,0,0,66.45,50Zm.81,16.36a.81.81,0,0,1-.81.81H46.35a.8.8,0,0,1-.8-.81v-13a.81.81,0,0,1,.8-.81h20.1a.81.81,0,0,1,.81.81Z" fill="#03363f"/>
      <path id="Path_53" data-name="Path 53" d="M52.35,82.21a1.28,1.28,0,1,0,.912.371,1.28,1.28,0,0,0-.912-.371Z" fill="#03363f"/>
      <path id="Path_54" data-name="Path 54" d="M52.35,86.72A1.28,1.28,0,1,0,53.64,88,1.28,1.28,0,0,0,52.35,86.72Z" fill="#03363f"/>
      <path id="Path_55" data-name="Path 55" d="M52.35,91.23a1.29,1.29,0,1,0,1.29,1.29,1.29,1.29,0,0,0-1.29-1.29Z" fill="#03363f"/>
      <path id="Path_56" data-name="Path 56" d="M52.35,95.75A1.28,1.28,0,1,0,53.64,97,1.28,1.28,0,0,0,52.35,95.75Z" fill="#03363f"/>
      <path id="Path_57" data-name="Path 57" d="M44.51,82.21a1.28,1.28,0,1,0,1.28,1.28A1.28,1.28,0,0,0,44.51,82.21Z" fill="#03363f"/>
      <path id="Path_58" data-name="Path 58" d="M44.51,86.72A1.28,1.28,0,1,0,45.79,88,1.28,1.28,0,0,0,44.51,86.72Z" fill="#03363f"/>
      <path id="Path_59" data-name="Path 59" d="M44.51,91.23a1.29,1.29,0,1,0,1.28,1.29,1.29,1.29,0,0,0-1.28-1.29Z" fill="#03363f"/>
      <path id="Path_60" data-name="Path 60" d="M44.51,95.75A1.28,1.28,0,1,0,45.79,97,1.28,1.28,0,0,0,44.51,95.75Z" fill="#03363f"/>
      <path id="Path_61" data-name="Path 61" d="M68,82.21a1.28,1.28,0,1,0,1.28,1.28A1.28,1.28,0,0,0,68,82.21Z" fill="#03363f"/>
      <circle id="Ellipse_30" data-name="Ellipse 30" cx="1.28" cy="1.28" r="1.28" transform="translate(66.76 86.72)" fill="#03363f"/>
      <path id="Path_62" data-name="Path 62" d="M68,91.23a1.28,1.28,0,1,0,.909.378A1.29,1.29,0,0,0,68,91.23Z" fill="#03363f"/>
      <path id="Path_63" data-name="Path 63" d="M68,95.75a1.28,1.28,0,1,0,.92.35A1.28,1.28,0,0,0,68,95.75Z" fill="#03363f"/>
      <path id="Path_64" data-name="Path 64" d="M60.2,82.21a1.28,1.28,0,1,0,1.28,1.28,1.28,1.28,0,0,0-1.28-1.28Z" fill="#03363f"/>
      <circle id="Ellipse_31" data-name="Ellipse 31" cx="1.28" cy="1.28" r="1.28" transform="translate(58.92 86.72)" fill="#03363f"/>
      <path id="Path_65" data-name="Path 65" d="M60.2,91.23a1.29,1.29,0,1,0,1.28,1.29,1.29,1.29,0,0,0-1.28-1.29Z" fill="#03363f"/>
      <path id="Path_66" data-name="Path 66" d="M60.2,95.75A1.28,1.28,0,1,0,61.48,97,1.28,1.28,0,0,0,60.2,95.75Z" fill="#03363f"/>
      <circle id="Ellipse_32" data-name="Ellipse 32" cx="1.02" cy="1.02" r="1.02" transform="translate(36.99 134.91)" fill="#f15f22"/>
      <circle id="Ellipse_33" data-name="Ellipse 33" cx="1.02" cy="1.02" r="1.02" transform="translate(40.58 134.91)" fill="#f15f22"/>
      <circle id="Ellipse_34" data-name="Ellipse 34" cx="1.02" cy="1.02" r="1.02" transform="translate(44.18 134.91)" fill="#f15f22"/>
      <circle id="Ellipse_35" data-name="Ellipse 35" cx="1.02" cy="1.02" r="1.02" transform="translate(47.77 134.91)" fill="#f15f22"/>
      <circle id="Ellipse_36" data-name="Ellipse 36" cx="1.02" cy="1.02" r="1.02" transform="translate(51.42 134.91)" fill="#f15f22"/>
      <circle id="Ellipse_37" data-name="Ellipse 37" cx="1.02" cy="1.02" r="1.02" transform="translate(55.02 134.91)" fill="#f15f22"/>
      <circle id="Ellipse_38" data-name="Ellipse 38" cx="1.02" cy="1.02" r="1.02" transform="translate(58.61 134.91)" fill="#f15f22"/>
      <circle id="Ellipse_39" data-name="Ellipse 39" cx="1.02" cy="1.02" r="1.02" transform="translate(62.2 134.91)" fill="#f15f22"/>
      <path id="Path_67" data-name="Path 67" d="M78.3,142.89H34.49A3.45,3.45,0,0,1,31,139.45V118.39a3.46,3.46,0,0,1,3.45-3.45H78.3a3.46,3.46,0,0,1,3.45,3.45v21.06a3.45,3.45,0,0,1-3.45,3.44ZM34.49,116.94A1.45,1.45,0,0,0,33,118.39v21.06a1.44,1.44,0,0,0,1.45,1.44H78.3a1.44,1.44,0,0,0,1.45-1.44V118.39a1.45,1.45,0,0,0-1.45-1.45Z" fill="#f15f22"/>
      <path id="Path_68" data-name="Path 68" d="M63.66,124.92H38a1,1,0,0,1,0-2H63.66a1,1,0,1,1,0,2Z" fill="#f15f22"/>
      <path id="Path_69" data-name="Path 69" d="M63.66,128.93H38a1,1,0,0,1,0-2H63.66a1,1,0,1,1,0,2Z" fill="#f15f22"/>
      <path id="Path_70" data-name="Path 70" d="M75.89,128.93H71.25a1.85,1.85,0,0,1-1.85-1.85v-2.3a1.86,1.86,0,0,1,1.85-1.86h4.64a1.86,1.86,0,0,1,1.85,1.86v2.3a1.85,1.85,0,0,1-1.85,1.85Zm-4.49-2h4.34v-2H71.4Z" fill="#f15f22"/>
    </g>
  </g>
</svg>
