<svg id="Asset_5" data-name="Asset 5" xmlns="http://www.w3.org/2000/svg" width="112.8" height="156.52" viewBox="0 0 112.8 156.52">
  <g id="Layer_2" data-name="Layer 2">
    <path id="Path_41" data-name="Path 41" d="M55.65,20.94h5.58v2.4H52.48v-1a4.56,4.56,0,0,1,.34-1.81,6.43,6.43,0,0,1,.85-1.44A8,8,0,0,1,54.79,18c.41-.32.8-.62,1.16-.88a11.277,11.277,0,0,0,1-.79,5.66,5.66,0,0,0,.73-.75,2.67,2.67,0,0,0,.45-.75,2.38,2.38,0,0,0,.14-.81,1.64,1.64,0,0,0-.47-1.27,2.12,2.12,0,0,0-1.46-.43,4.9,4.9,0,0,0-3.25,1.34V11.08A7.07,7.07,0,0,1,57,10a5.53,5.53,0,0,1,1.79.26,3.83,3.83,0,0,1,1.35.74A3.44,3.44,0,0,1,61,12.16a4,4,0,0,1,.28,1.55A4.28,4.28,0,0,1,61,15.32a4.65,4.65,0,0,1-.74,1.28,6.32,6.32,0,0,1-1.07,1.06c-.4.32-.82.63-1.25.93l-.85.62c-.27.21-.51.41-.72.61a3.08,3.08,0,0,0-.49.58,1,1,0,0,0-.23.54Z" fill="#03363f"/>
    <path id="Path_42" data-name="Path 42" d="M56.4,33.26A16.63,16.63,0,1,1,73,16.63,16.63,16.63,0,0,1,56.4,33.26ZM56.4,2A14.63,14.63,0,1,0,71,16.63,14.63,14.63,0,0,0,56.4,2Z" fill="#03363f"/>
    <path id="Path_43" data-name="Path 43" d="M56.4,156.52a56.4,56.4,0,1,1,56.4-56.4,56.4,56.4,0,0,1-56.4,56.4Zm0-110.79a54.4,54.4,0,1,0,54.4,54.4,54.4,54.4,0,0,0-54.4-54.4Z" fill="#03363f"/>
    <path id="Path_44" data-name="Path 44" d="M67.57,133.88H45.23a5.47,5.47,0,0,1-5.46-5.46V83.16H73v45.26a5.47,5.47,0,0,1-5.43,5.46ZM41.77,85.16v43.26a3.46,3.46,0,0,0,3.46,3.46H67.57A3.46,3.46,0,0,0,71,128.42V85.16Z" fill="#03363f"/>
    <rect id="Rectangle_38" data-name="Rectangle 38" width="31.26" height="2" transform="translate(40.67 108.84)" fill="#03363f"/>
    <path id="Path_45" data-name="Path 45" d="M64.41,104.83h-16a2.65,2.65,0,0,1-2.64-2.65V91.8a2.64,2.64,0,0,1,2.64-2.64h16a2.64,2.64,0,0,1,2.64,2.64v10.38a2.65,2.65,0,0,1-2.64,2.65Zm-16-13.67a.64.64,0,0,0-.64.64v10.38a.65.65,0,0,0,.64.65h16a.65.65,0,0,0,.64-.65V91.8a.64.64,0,0,0-.64-.64Z" fill="#f15f22"/>
    <path id="Path_46" data-name="Path 46" d="M71.05,85.16H41.78V74.29a7.94,7.94,0,0,1,7.93-7.93H63.13a7.93,7.93,0,0,1,7.92,7.93Zm-27.27-2H69.05V74.29a5.93,5.93,0,0,0-5.92-5.93H49.71a5.94,5.94,0,0,0-5.93,5.93Z" fill="#03363f"/>
    <path id="Path_47" data-name="Path 47" d="M67.06,85.16H45.76v-8.8a4,4,0,0,1,4-4H63.07a4,4,0,0,1,4,4Zm-19.3-2h17.3v-6.8a2,2,0,0,0-2-2H49.74a2,2,0,0,0-2,2Z" fill="#03363f"/>
    <circle id="Ellipse_14" data-name="Ellipse 14" cx="1.02" cy="1.02" r="1.02" transform="translate(52.16 114.84)" fill="#f15f22"/>
    <circle id="Ellipse_15" data-name="Ellipse 15" cx="1.02" cy="1.02" r="1.02" transform="translate(52.16 118.44)" fill="#f15f22"/>
    <circle id="Ellipse_16" data-name="Ellipse 16" cx="1.02" cy="1.02" r="1.02" transform="translate(52.16 122.03)" fill="#f15f22"/>
    <circle id="Ellipse_17" data-name="Ellipse 17" cx="1.02" cy="1.02" r="1.02" transform="translate(52.16 125.62)" fill="#f15f22"/>
    <circle id="Ellipse_18" data-name="Ellipse 18" cx="1.02" cy="1.02" r="1.02" transform="translate(45.92 114.84)" fill="#f15f22"/>
    <circle id="Ellipse_19" data-name="Ellipse 19" cx="1.02" cy="1.02" r="1.02" transform="translate(45.92 118.44)" fill="#f15f22"/>
    <circle id="Ellipse_20" data-name="Ellipse 20" cx="1.02" cy="1.02" r="1.02" transform="translate(45.92 122.03)" fill="#f15f22"/>
    <circle id="Ellipse_21" data-name="Ellipse 21" cx="1.02" cy="1.02" r="1.02" transform="translate(45.92 125.62)" fill="#f15f22"/>
    <circle id="Ellipse_22" data-name="Ellipse 22" cx="1.02" cy="1.02" r="1.02" transform="translate(64.65 114.84)" fill="#f15f22"/>
    <circle id="Ellipse_23" data-name="Ellipse 23" cx="1.02" cy="1.02" r="1.02" transform="translate(64.65 118.44)" fill="#f15f22"/>
    <circle id="Ellipse_24" data-name="Ellipse 24" cx="1.02" cy="1.02" r="1.02" transform="translate(64.65 122.03)" fill="#f15f22"/>
    <circle id="Ellipse_25" data-name="Ellipse 25" cx="1.02" cy="1.02" r="1.02" transform="translate(64.65 125.62)" fill="#f15f22"/>
    <circle id="Ellipse_26" data-name="Ellipse 26" cx="1.02" cy="1.02" r="1.02" transform="translate(58.4 114.84)" fill="#f15f22"/>
    <circle id="Ellipse_27" data-name="Ellipse 27" cx="1.02" cy="1.02" r="1.02" transform="translate(58.4 118.44)" fill="#f15f22"/>
    <circle id="Ellipse_28" data-name="Ellipse 28" cx="1.02" cy="1.02" r="1.02" transform="translate(58.4 122.03)" fill="#f15f22"/>
    <circle id="Ellipse_29" data-name="Ellipse 29" cx="1.02" cy="1.02" r="1.02" transform="translate(58.4 125.62)" fill="#f15f22"/>
  </g>
</svg>
