<svg id="Layer_2" data-name="Layer 2" xmlns="http://www.w3.org/2000/svg" width="112.8" height="160.46" viewBox="0 0 112.8 160.46">
  <path id="Path_86" data-name="Path 86" d="M55.65,20.94h5.58v2.4H52.48v-1a4.56,4.56,0,0,1,.34-1.81,6.43,6.43,0,0,1,.85-1.44A7.55,7.55,0,0,1,54.8,18c.4-.32.79-.62,1.15-.88a11.277,11.277,0,0,0,1-.79,5.66,5.66,0,0,0,.73-.75,2.67,2.67,0,0,0,.45-.75,2.38,2.38,0,0,0,.14-.81,1.64,1.64,0,0,0-.47-1.27,2.12,2.12,0,0,0-1.46-.43,4.9,4.9,0,0,0-3.25,1.34V11.08A7.07,7.07,0,0,1,57,10a5.53,5.53,0,0,1,1.79.26,3.83,3.83,0,0,1,1.35.74A3.44,3.44,0,0,1,61,12.16a4,4,0,0,1,.28,1.55A4.28,4.28,0,0,1,61,15.32a4.65,4.65,0,0,1-.74,1.28,6.32,6.32,0,0,1-1.07,1.06c-.4.32-.82.63-1.25.93l-.85.62c-.27.21-.51.41-.72.61a3.08,3.08,0,0,0-.49.58,1,1,0,0,0-.23.54Z" fill="#03363f"/>
  <path id="Path_87" data-name="Path 87" d="M56.4,33.26A16.63,16.63,0,1,1,73,16.63,16.63,16.63,0,0,1,56.4,33.26ZM56.4,2A14.63,14.63,0,1,0,71,16.63,14.63,14.63,0,0,0,56.4,2Z" fill="#03363f"/>
  <path id="Path_88" data-name="Path 88" d="M56.4,160.46a56.4,56.4,0,1,1,56.4-56.4,56.4,56.4,0,0,1-56.4,56.4Zm0-110.79a54.4,54.4,0,1,0,54.4,54.4,54.4,54.4,0,0,0-54.4-54.4Z" fill="#03363f"/>
  <path id="Path_89" data-name="Path 89" d="M76.77,103.71v33.53H58.36A12.23,12.23,0,0,1,46.15,125v-4.09a1,1,0,0,1,2,0V125a10.22,10.22,0,0,0,10.21,10.21H74.77v-31.5a3.48,3.48,0,0,0-1-2.46L62,89.47V87.41a1,1,0,0,1,1,.24L75.17,99.84a5.45,5.45,0,0,1,1.6,3.87Z" fill="#03363f"/>
  <circle id="Ellipse_45" data-name="Ellipse 45" cx="1.02" cy="1.02" r="1.02" transform="translate(55.99 99.18)" fill="#f15f22"/>
  <circle id="Ellipse_46" data-name="Ellipse 46" cx="1.02" cy="1.02" r="1.02" transform="translate(55.99 95.59)" fill="#f15f22"/>
  <circle id="Ellipse_47" data-name="Ellipse 47" cx="1.02" cy="1.02" r="1.02" transform="translate(55.99 92)" fill="#f15f22"/>
  <circle id="Ellipse_48" data-name="Ellipse 48" cx="1.02" cy="1.02" r="1.02" transform="translate(55.99 88.41)" fill="#f15f22"/>
  <path id="Path_90" data-name="Path 90" d="M60.54,70.9H39.48A3.46,3.46,0,0,0,36,74.35v43.82a3.45,3.45,0,0,0,3.45,3.44H57a14.38,14.38,0,0,1-.22-2H39.48A1.45,1.45,0,0,1,38,118.17V74.35a1.45,1.45,0,0,1,1.45-1.45H60.54A1.45,1.45,0,0,1,62,74.35v36.09l2,2V74.35a3.45,3.45,0,0,0-3.46-3.45Z" fill="#f15f22"/>
  <path id="Path_91" data-name="Path 91" d="M45,115.62a1,1,0,0,1-1-1V89a1,1,0,0,1,2,0v25.63A1,1,0,0,1,45,115.62Z" fill="#f15f22"/>
  <path id="Path_92" data-name="Path 92" d="M50,89V99.12a3.19,3.19,0,0,0-2,.2V89a1,1,0,0,1,2,0Z" fill="#f15f22"/>
  <path id="Path_93" data-name="Path 93" d="M48,104.91l2,2v7.71a1,1,0,0,1-2,0Z" fill="#f15f22"/>
  <path id="Path_94" data-name="Path 94" d="M48.16,74.91h-2.3A1.85,1.85,0,0,0,44,76.76V81.4a1.85,1.85,0,0,0,1.85,1.85h2.3A1.86,1.86,0,0,0,50,81.4V76.76a1.86,1.86,0,0,0-1.84-1.85ZM48,81.25H46V76.91h2Z" fill="#f15f22"/>
  <path id="Path_95" data-name="Path 95" d="M68.2,115.25a1,1,0,0,1-1.41,0L62,110.44,51.42,99.89a2.9,2.9,0,0,0-1.4-.77,3.19,3.19,0,0,0-2,.2,2.83,2.83,0,0,0-.81.57,2.92,2.92,0,0,0-.87,2.1,3,3,0,0,0,.87,2.11L50,106.91l6.74,6.74.64.64-.16.57c0,.06-.1.35-.19.8a17.37,17.37,0,0,0-.32,4,14.38,14.38,0,0,0,.22,2,11.17,11.17,0,0,0,6.9,8.58A.985.985,0,1,1,63,132a13,13,0,0,1-8-10.39,15.859,15.859,0,0,1-.19-2,19,19,0,0,1,.39-4.72L50,109.74l-2-2-2-2-.22-.22a5,5,0,0,1,0-7,2.092,2.092,0,0,1,.22-.2,4.83,4.83,0,0,1,2-1.09A5,5,0,0,1,49.31,97a4.169,4.169,0,0,1,.71.06,4.87,4.87,0,0,1,2.81,1.4l4.39,4.39.79.79h0l4,4,2,2,4.22,4.22a1,1,0,0,1-.03,1.39Z" fill="#03363f"/>
</svg>
