<svg xmlns="http://www.w3.org/2000/svg" width="439.271" height="84.527" viewBox="0 0 439.271 84.527">
  <g id="Group_16" data-name="Group 16" transform="translate(-96.72 -119.087)">
    <g id="Group_1" data-name="Group 1" transform="translate(386.179 119.09)">
      <path id="Path_10" data-name="Path 10" d="M479.638,135.145v2.394a7.954,7.954,0,0,1-4.311,7.088,7.824,7.824,0,0,1-3.556.895l-7.46-.012v.023l-3.149,22.229a15.637,15.637,0,0,0-.151,2.673,5.137,5.137,0,0,0,.476,2.092,2.981,2.981,0,0,0,1.313,1.336,4.828,4.828,0,0,0,2.289.465,12.055,12.055,0,0,0,3.835-.523c1.1-.349,2.219-.72,3.358-1.116l2.022,9.342c-1.162.546-2.312,1.046-3.428,1.5a30.847,30.847,0,0,1-3.451,1.162,30.5,30.5,0,0,1-3.718.744,32.3,32.3,0,0,1-4.276.256,17.383,17.383,0,0,1-5.763-.906,10.037,10.037,0,0,1-4.334-2.882,11.088,11.088,0,0,1-2.452-5.055,21.051,21.051,0,0,1-.1-7.414l3.393-23.891-5.589-.012v-2.394a7.965,7.965,0,0,1,7.042-7.925l1.778-12.55,14.165.012-1.778,12.445,10.888.023Z" transform="translate(-329.826 -118.511)" fill="#1c4d65"/>
      <path id="Path_11" data-name="Path 11" d="M399.806,119.09l-6.056,45.061h0c-1.1-1.638-17.565-36.569-18.8-38.962a11.3,11.3,0,0,0-10.036-6.1H355.4a.139.139,0,0,0-.139.1l-9.439,67.2h14.638l5.918-44.05h0c.593.86,17.635,35.186,18.948,37.615A12.215,12.215,0,0,0,396.1,186.4h8.771a.14.14,0,0,0,.14-.1l9.449-67.2Z" transform="translate(-345.824 -119.09)" fill="#1c4d65"/>
      <path id="Path_12" data-name="Path 12" d="M417.062,166.284a7.69,7.69,0,0,0,3.115,5.4q2.574,1.828,7.733,1.838a15.738,15.738,0,0,0,3.041-.289,24.285,24.285,0,0,0,2.895-.748q1.4-.458,2.749-1.045t2.6-1.168l2.207,8.348a38.343,38.343,0,0,1-8.036,3.278,32.523,32.523,0,0,1-8.914,1.178q-9.393-.017-14.4-4.66t-4.985-13.785a32.021,32.021,0,0,1,1.907-11.446,22.956,22.956,0,0,1,5.278-8.272,21.851,21.851,0,0,1,8-5,29.144,29.144,0,0,1,10.024-1.659,20.771,20.771,0,0,1,6.835,1.062,15.586,15.586,0,0,1,5.109,2.86,12.219,12.219,0,0,1,3.18,4.179,11.866,11.866,0,0,1,1.081,5.014,17.712,17.712,0,0,1-.321,3.249,13.821,13.821,0,0,1-1.1,3.354,13.986,13.986,0,0,1-2.081,3.162,12.946,12.946,0,0,1-3.255,2.657,17.882,17.882,0,0,1-4.617,1.837,24.6,24.6,0,0,1-6.146.68Zm11.231-18.221a8.931,8.931,0,0,0-3.629.7,9.783,9.783,0,0,0-2.876,1.915,12.747,12.747,0,0,0-2.186,2.792,18.529,18.529,0,0,0-1.516,3.293l10.191.02a19.944,19.944,0,0,0,2.559-.143,5.676,5.676,0,0,0,1.93-.559,2.835,2.835,0,0,0,1.218-1.207,4.371,4.371,0,0,0,.423-2.045,4.316,4.316,0,0,0-.52-2.171,4.22,4.22,0,0,0-1.4-1.484,6.551,6.551,0,0,0-1.97-.839A9.147,9.147,0,0,0,428.292,148.063Z" transform="translate(-336.226 -115.986)" fill="#1c4d65"/>
    </g>
    <g id="Group_2" data-name="Group 2" transform="translate(96.72 130.59)">
      <path id="Rectangle_6" data-name="Rectangle 6" d="M6.881,0H45.676a0,0,0,0,1,0,0V3.927a6.881,6.881,0,0,1-6.881,6.881H0a0,0,0,0,1,0,0V6.881A6.881,6.881,0,0,1,6.881,0Z" transform="translate(35.467)" fill="#1c4d65"/>
      <path id="Path_13" data-name="Path 13" d="M165.231,148.352v2.812a7.994,7.994,0,0,1-7.995,7.995H96.72v-2.812a7.994,7.994,0,0,1,7.995-7.995Z" transform="translate(-96.72 -125.849)" fill="#1c4d65"/>
      <path id="Rectangle_7" data-name="Rectangle 7" d="M6.881,0H45.676a0,0,0,0,1,0,0V3.927a6.881,6.881,0,0,1-6.881,6.881H0a0,0,0,0,1,0,0V6.881A6.881,6.881,0,0,1,6.881,0Z" transform="translate(35.467 45.004)" fill="#1c4d65"/>
    </g>
    <g id="Group_3" data-name="Group 3" transform="translate(183.163 119.087)">
      <path id="Path_14" data-name="Path 14" d="M260.5,141a37.315,37.315,0,0,0-4.172-1.394,40.456,40.456,0,0,0-4.671-.964,35.407,35.407,0,0,0-5.008-.36,33.608,33.608,0,0,0-11.051,1.731,22.622,22.622,0,0,0-8.529,5.171,23.369,23.369,0,0,0-5.485,8.657,34.03,34.03,0,0,0-1.964,12.1,25.956,25.956,0,0,0,.964,7.39,15.617,15.617,0,0,0,2.766,5.426,11.5,11.5,0,0,0,4.392,3.37,14.3,14.3,0,0,0,5.891,1.162,16.4,16.4,0,0,0,4.195-.511,20.04,20.04,0,0,0,3.556-1.278,21.44,21.44,0,0,0,3.01-1.731c.86-.593,1.662-1.162,2.394-1.708l-.732,5.229H258.23l.128-.883,5.624-39.822C262.948,142.05,261.786,141.527,260.5,141Zm-16.547,31.572a13.432,13.432,0,0,1-4.671.86,7.674,7.674,0,0,1-3.01-.569,6.206,6.206,0,0,1-2.382-1.731,7.983,7.983,0,0,1-1.557-2.986,15.569,15.569,0,0,1-.546-4.369,22.7,22.7,0,0,1,.93-6.809,13.9,13.9,0,0,1,2.591-4.892,10.8,10.8,0,0,1,3.928-2.951,12.389,12.389,0,0,1,5.008-.988,17.872,17.872,0,0,1,4.218.442,14.058,14.058,0,0,1,2.347.732l-2.94,21.172c-.012,0-.012.012-.023.012A15.352,15.352,0,0,1,243.949,172.576Z" transform="translate(-163.254 -115.977)" fill="#58595b"/>
      <path id="Path_15" data-name="Path 15" d="M226.148,127.838a16.83,16.83,0,0,0-1.212-2.014q-4.738-6.718-14.007-6.719l-22.647-.019a9.429,9.429,0,0,0-9.022,7.534,2.644,2.644,0,0,0-.079.417l-.475,3.538,27.48.021c3.427.049,6.039,1.023,7.816,2.921a7.838,7.838,0,0,1,1.972,6.618,10.567,10.567,0,0,1-3.48,6.44,13.3,13.3,0,0,1-9.233,3.37L184,149.931a9.353,9.353,0,0,0-9.029,7.887l-3.864,28.575,12.326.009,3.408-25.179,17.875.014a22.291,22.291,0,0,0,16.32-6.419,23.879,23.879,0,0,0,7.024-14.314A20.69,20.69,0,0,0,226.148,127.838Z" transform="translate(-171.112 -119.087)" fill="#58595b"/>
      <path id="Path_16" data-name="Path 16" d="M260.984,166.028A33.824,33.824,0,0,1,263,153.757a23.508,23.508,0,0,1,5.64-8.65,22.934,22.934,0,0,1,8.588-5.135,33.784,33.784,0,0,1,10.9-1.684,32.691,32.691,0,0,1,4.777.357,43.682,43.682,0,0,1,4.674.948,38.793,38.793,0,0,1,4.251,1.367,29.031,29.031,0,0,1,3.515,1.621l-5.345,37.971h-.128l.128.042-.044.379a23.9,23.9,0,0,1-2.735,9.091,19.176,19.176,0,0,1-5.261,6.041,20.509,20.509,0,0,1-7.178,3.367,34.356,34.356,0,0,1-8.566,1.032,24.717,24.717,0,0,1-3.852-.316,32.631,32.631,0,0,1-4.019-.905,35.792,35.792,0,0,1-3.915-1.39,29.6,29.6,0,0,1-3.536-1.767l4.294-7.83a22.387,22.387,0,0,0,4.672,1.937,21.248,21.248,0,0,0,5.892.883,18.083,18.083,0,0,0,4.547-.546,9.945,9.945,0,0,0,3.7-1.812,10.207,10.207,0,0,0,2.674-3.283,15.925,15.925,0,0,0,1.536-5.009l.21-1.432a29.391,29.391,0,0,1-2.589,1.558,25.2,25.2,0,0,1-3.031,1.368,21.555,21.555,0,0,1-3.473.969,20.408,20.408,0,0,1-3.873.357,15.566,15.566,0,0,1-6.335-1.2,11.951,11.951,0,0,1-4.525-3.431,14.949,14.949,0,0,1-2.716-5.43A26.4,26.4,0,0,1,260.984,166.028Zm12.25-2.273q0,4.84,2.04,7.261a6.961,6.961,0,0,0,5.619,2.42,9.985,9.985,0,0,0,2.147-.253,18.581,18.581,0,0,0,2.252-.653,15.308,15.308,0,0,0,2.126-.947,12.9,12.9,0,0,0,1.767-1.136l2.989-21.173a13.529,13.529,0,0,0-2.441-.738,17.869,17.869,0,0,0-4-.4,13.178,13.178,0,0,0-4.652.842,10.407,10.407,0,0,0-4,2.716,13.672,13.672,0,0,0-2.8,4.841A21.712,21.712,0,0,0,273.234,163.756Z" transform="translate(-156.567 -115.976)" fill="#58595b"/>
      <path id="Path_17" data-name="Path 17" d="M302.434,164.634a31.279,31.279,0,0,1,1.821-10.925,23.93,23.93,0,0,1,5.184-8.42,23.226,23.226,0,0,1,8.121-5.421,28.049,28.049,0,0,1,10.627-1.928,24.536,24.536,0,0,1,7.755,1.178,16.733,16.733,0,0,1,6.127,3.535,16.2,16.2,0,0,1,4.028,5.934,22.139,22.139,0,0,1,1.457,8.377,32.292,32.292,0,0,1-1.822,11.205,23.672,23.672,0,0,1-5.184,8.42,22.44,22.44,0,0,1-8.12,5.313,29.217,29.217,0,0,1-10.627,1.843,24.626,24.626,0,0,1-8.184-1.264,16.3,16.3,0,0,1-6.084-3.686,15.778,15.778,0,0,1-3.792-5.976A23.628,23.628,0,0,1,302.434,164.634Zm12.3-.942a15.109,15.109,0,0,0,.622,4.649,8.238,8.238,0,0,0,1.735,3.107,6.446,6.446,0,0,0,2.677,1.735,10.752,10.752,0,0,0,3.493.536,12.771,12.771,0,0,0,4.928-.921A9.667,9.667,0,0,0,332,169.948a13.754,13.754,0,0,0,2.463-4.906,25.238,25.238,0,0,0,.88-7.092,14.468,14.468,0,0,0-.622-4.5,8.481,8.481,0,0,0-1.736-3.106,6.738,6.738,0,0,0-2.677-1.8,9.875,9.875,0,0,0-3.449-.579,12.313,12.313,0,0,0-4.842.942,9.936,9.936,0,0,0-3.836,2.893,14.325,14.325,0,0,0-2.529,4.906A23.605,23.605,0,0,0,314.731,163.692Z" transform="translate(-149.838 -116.033)" fill="#58595b"/>
    </g>
  </g>
</svg>
