<svg id="Group_5" data-name="Group 5" xmlns="http://www.w3.org/2000/svg" width="344.339" height="66.26" viewBox="0 0 344.339 66.26">
  <g id="Group_1" data-name="Group 1" transform="translate(226.903 0.003)">
    <path id="Path_10" data-name="Path 10" d="M472.061,132.448v1.876a6.235,6.235,0,0,1-3.379,5.556,6.134,6.134,0,0,1-2.787.7l-5.848-.009v.018l-2.469,17.425a12.269,12.269,0,0,0-.118,2.1,4.029,4.029,0,0,0,.373,1.64,2.337,2.337,0,0,0,1.029,1.048,3.785,3.785,0,0,0,1.794.364,9.449,9.449,0,0,0,3.006-.41c.865-.273,1.74-.565,2.632-.874l1.585,7.323c-.911.428-1.813.82-2.687,1.175a24.17,24.17,0,0,1-2.705.911,23.916,23.916,0,0,1-2.915.583,25.333,25.333,0,0,1-3.352.2,13.629,13.629,0,0,1-4.518-.71,7.869,7.869,0,0,1-3.4-2.259,8.691,8.691,0,0,1-1.922-3.962,16.5,16.5,0,0,1-.082-5.811l2.66-18.728-4.381-.009v-1.876a6.243,6.243,0,0,1,5.52-6.212l1.394-9.837,11.1.009L461.2,132.43l8.535.018Z" transform="translate(-354.625 -119.409)" fill="#fff"/>
    <path id="Path_11" data-name="Path 11" d="M388.14,119.09l-4.748,35.323h0c-.865-1.284-13.769-28.666-14.734-30.542a8.856,8.856,0,0,0-7.867-4.781h-7.458a.109.109,0,0,0-.109.082l-7.4,52.679H357.3l4.639-34.531h0c.465.674,13.823,27.582,14.853,29.486a9.575,9.575,0,0,0,8.441,5.044h6.875a.109.109,0,0,0,.109-.082l7.407-52.679Z" transform="translate(-345.824 -119.09)" fill="#fff"/>
    <path id="Path_12" data-name="Path 12" d="M414.47,160.226a6.028,6.028,0,0,0,2.442,4.229q2.018,1.433,6.062,1.441a12.338,12.338,0,0,0,2.384-.227,19.035,19.035,0,0,0,2.269-.587q1.1-.359,2.155-.819t2.04-.915l1.73,6.544a30.056,30.056,0,0,1-6.3,2.57,25.494,25.494,0,0,1-6.987.924q-7.363-.014-11.285-3.653t-3.908-10.806a25.1,25.1,0,0,1,1.495-8.972,18,18,0,0,1,4.137-6.485,17.127,17.127,0,0,1,6.27-3.917,22.845,22.845,0,0,1,7.858-1.3,16.282,16.282,0,0,1,5.358.833,12.216,12.216,0,0,1,4.005,2.242,9.578,9.578,0,0,1,2.493,3.275,9.3,9.3,0,0,1,.847,3.93,13.88,13.88,0,0,1-.251,2.547,10.833,10.833,0,0,1-.859,2.629,10.961,10.961,0,0,1-1.631,2.479,10.147,10.147,0,0,1-2.551,2.083,14.014,14.014,0,0,1-3.619,1.44,19.282,19.282,0,0,1-4.818.533Zm8.8-14.283a7,7,0,0,0-2.845.551,7.672,7.672,0,0,0-2.254,1.5,9.994,9.994,0,0,0-1.713,2.189,14.506,14.506,0,0,0-1.189,2.581l7.988.016a15.636,15.636,0,0,0,2.006-.112,4.451,4.451,0,0,0,1.513-.438,2.223,2.223,0,0,0,.955-.946,3.427,3.427,0,0,0,.332-1.6,3.384,3.384,0,0,0-.407-1.7,3.307,3.307,0,0,0-1.1-1.163,5.133,5.133,0,0,0-1.544-.658A7.169,7.169,0,0,0,423.274,145.943Z" transform="translate(-351.104 -120.798)" fill="#fff"/>
  </g>
  <g id="Group_2" data-name="Group 2" transform="translate(0 9.017)">
    <path id="Rectangle_6" data-name="Rectangle 6" d="M6.881,0H35.8a0,0,0,0,1,0,0V1.591a6.881,6.881,0,0,1-6.881,6.881H0a0,0,0,0,1,0,0V6.881A6.881,6.881,0,0,1,6.881,0Z" transform="translate(27.802 0)" fill="#fff"/>
    <path id="Path_13" data-name="Path 13" d="M150.425,148.352v2.2a6.266,6.266,0,0,1-6.267,6.267H96.72v-2.2a6.267,6.267,0,0,1,6.267-6.267Z" transform="translate(-96.72 -130.712)" fill="#fff"/>
    <path id="Rectangle_7" data-name="Rectangle 7" d="M6.881,0H35.8a0,0,0,0,1,0,0V1.591a6.881,6.881,0,0,1-6.881,6.881H0a0,0,0,0,1,0,0V6.881A6.881,6.881,0,0,1,6.881,0Z" transform="translate(27.802 35.278)" fill="#fff"/>
  </g>
  <g id="Group_3" data-name="Group 3" transform="translate(67.762)">
    <path id="Path_14" data-name="Path 14" d="M251.662,140.416a29.24,29.24,0,0,0-3.27-1.093,31.724,31.724,0,0,0-3.662-.756,27.756,27.756,0,0,0-3.926-.282,26.345,26.345,0,0,0-8.662,1.357,17.733,17.733,0,0,0-6.686,4.053,18.319,18.319,0,0,0-4.3,6.786,26.675,26.675,0,0,0-1.539,9.482,20.347,20.347,0,0,0,.756,5.793,12.241,12.241,0,0,0,2.168,4.254,9.012,9.012,0,0,0,3.443,2.642,11.2,11.2,0,0,0,4.618.911,12.855,12.855,0,0,0,3.288-.4,15.713,15.713,0,0,0,2.787-1,16.807,16.807,0,0,0,2.359-1.357c.674-.465,1.3-.911,1.876-1.339l-.574,4.1h9.546l.1-.692,4.409-31.216C253.584,141.236,252.673,140.826,251.662,140.416Zm-12.971,24.749a10.53,10.53,0,0,1-3.662.674,6.015,6.015,0,0,1-2.359-.446,4.865,4.865,0,0,1-1.867-1.357,6.256,6.256,0,0,1-1.221-2.341,12.2,12.2,0,0,1-.428-3.425,17.8,17.8,0,0,1,.729-5.338,10.9,10.9,0,0,1,2.031-3.835,8.461,8.461,0,0,1,3.079-2.314,9.711,9.711,0,0,1,3.926-.774,14.01,14.01,0,0,1,3.307.346,11.017,11.017,0,0,1,1.84.574l-2.3,16.6c-.009,0-.009.009-.018.009A12.034,12.034,0,0,1,238.691,165.165Z" transform="translate(-175.435 -120.798)" fill="#fff"/>
    <path id="Path_15" data-name="Path 15" d="M214.254,125.947a13.187,13.187,0,0,0-.95-1.579q-3.714-5.266-10.98-5.267l-17.753-.015a7.391,7.391,0,0,0-7.072,5.906,2.068,2.068,0,0,0-.062.327l-.373,2.774,21.541.016a8.166,8.166,0,0,1,6.127,2.29,6.144,6.144,0,0,1,1.546,5.187,8.283,8.283,0,0,1-2.728,5.048,10.424,10.424,0,0,1-7.238,2.642l-15.094-.012a7.332,7.332,0,0,0-7.078,6.182l-3.029,22.4,9.663.007,2.672-19.738,14.012.011a17.474,17.474,0,0,0,12.793-5.032,18.719,18.719,0,0,0,5.506-11.22A16.218,16.218,0,0,0,214.254,125.947Z" transform="translate(-171.112 -119.087)" fill="#fff"/>
    <path id="Path_16" data-name="Path 16" d="M260.966,160.033a26.513,26.513,0,0,1,1.583-9.62,18.427,18.427,0,0,1,4.421-6.781,17.977,17.977,0,0,1,6.732-4.025,26.484,26.484,0,0,1,8.547-1.32,25.634,25.634,0,0,1,3.745.28,34.251,34.251,0,0,1,3.664.743,30.4,30.4,0,0,1,3.332,1.071,22.764,22.764,0,0,1,2.755,1.271l-4.19,29.765h-.1l.1.033-.035.3a18.736,18.736,0,0,1-2.144,7.127,15.032,15.032,0,0,1-4.125,4.736,16.076,16.076,0,0,1-5.626,2.64,26.93,26.93,0,0,1-6.715.809,19.379,19.379,0,0,1-3.02-.248,25.594,25.594,0,0,1-3.151-.71,28.049,28.049,0,0,1-3.069-1.089,23.209,23.209,0,0,1-2.772-1.385l3.366-6.138a17.55,17.55,0,0,0,3.663,1.519,16.656,16.656,0,0,0,4.619.692,14.171,14.171,0,0,0,3.564-.428,7.8,7.8,0,0,0,2.9-1.42,8,8,0,0,0,2.1-2.573,12.483,12.483,0,0,0,1.2-3.927l.165-1.122a23.011,23.011,0,0,1-2.029,1.222,19.756,19.756,0,0,1-2.376,1.072,16.908,16.908,0,0,1-2.723.76,16,16,0,0,1-3.036.28,12.2,12.2,0,0,1-4.966-.94,9.367,9.367,0,0,1-3.547-2.69,11.718,11.718,0,0,1-2.129-4.257A20.692,20.692,0,0,1,260.966,160.033Zm9.6-1.782q0,3.794,1.6,5.692a5.457,5.457,0,0,0,4.405,1.9,7.821,7.821,0,0,0,1.683-.2,14.548,14.548,0,0,0,1.765-.512,11.994,11.994,0,0,0,1.667-.742,10.117,10.117,0,0,0,1.385-.891l2.343-16.6a10.6,10.6,0,0,0-1.914-.578,14,14,0,0,0-3.135-.313,10.328,10.328,0,0,0-3.646.66,8.158,8.158,0,0,0-3.134,2.129,10.718,10.718,0,0,0-2.194,3.795A17.022,17.022,0,0,0,270.568,158.252Z" transform="translate(-179.114 -120.798)" fill="#fff"/>
    <path id="Path_17" data-name="Path 17" d="M302.434,158.866a24.518,24.518,0,0,1,1.427-8.564,18.756,18.756,0,0,1,4.064-6.6,18.206,18.206,0,0,1,6.366-4.249,21.987,21.987,0,0,1,8.33-1.511,19.233,19.233,0,0,1,6.079.924,13.116,13.116,0,0,1,4.8,2.771,12.7,12.7,0,0,1,3.157,4.652,17.354,17.354,0,0,1,1.142,6.567,25.313,25.313,0,0,1-1.428,8.784,18.556,18.556,0,0,1-4.063,6.6,17.59,17.59,0,0,1-6.365,4.165,22.9,22.9,0,0,1-8.33,1.445,19.3,19.3,0,0,1-6.415-.991,12.777,12.777,0,0,1-4.769-2.889,12.368,12.368,0,0,1-2.972-4.685A18.524,18.524,0,0,1,302.434,158.866Zm9.64-.739a11.843,11.843,0,0,0,.487,3.644,6.456,6.456,0,0,0,1.36,2.436,5.053,5.053,0,0,0,2.1,1.36,8.428,8.428,0,0,0,2.738.42,10.012,10.012,0,0,0,3.863-.722,7.578,7.578,0,0,0,2.989-2.234,10.781,10.781,0,0,0,1.931-3.846,19.786,19.786,0,0,0,.69-5.559,11.341,11.341,0,0,0-.487-3.527,6.648,6.648,0,0,0-1.361-2.435,5.281,5.281,0,0,0-2.1-1.411,7.743,7.743,0,0,0-2.7-.454,9.651,9.651,0,0,0-3.8.739,7.789,7.789,0,0,0-3.007,2.268,11.23,11.23,0,0,0-1.982,3.846A18.5,18.5,0,0,0,312.074,158.127Z" transform="translate(-182.816 -120.767)" fill="#fff"/>
  </g>
</svg>
